<svg xmlns="http://www.w3.org/2000/svg" viewBox="0 0 207.45 69.5"><defs><style>.cls-1{fill:#fff;}</style></defs><g id="Calque_2" data-name="Calque 2"><g id="Calque_1-2" data-name="Calque 1"><path class="cls-1" d="M173.57,37.34H8.7v24.3H37.9v7.3H0V1.54H36.4v7.3H8.7v21.3H173.23Z"/><path class="cls-1" d="M101.13,66.3c-3.2,1.6-9.6,3.2-17.8,3.2-19,0-33.31-12-33.31-34.1C50,14.3,64.32,0,85.23,0c8.4,0,13.7,1.8,16,3l-2.1,7.1a31.69,31.69,0,0,0-13.6-2.8c-15.81,0-26.31,10.1-26.31,27.8,0,16.5,9.5,27.1,25.91,27.1a34.82,34.82,0,0,0,14.2-2.8Z"/><path class="cls-1" d="M157,66.3c-3.2,1.6-9.6,3.2-17.81,3.2-19,0-33.3-12-33.3-34.1,0-21.1,14.3-35.4,35.2-35.4,8.41,0,13.71,1.8,16,3L155,10.1a31.69,31.69,0,0,0-13.6-2.8c-15.81,0-26.31,10.1-26.31,27.8,0,16.5,9.5,27.1,25.9,27.1a34.84,34.84,0,0,0,14.21-2.8Z"/><polygon class="cls-1" points="207.44 35.02 171.66 64.27 171.66 5.66 207.44 35.02 207.44 35.02"/></g></g></svg>